<?xml version="1.0" encoding="UTF-8"?>
<svg version="1.1" xmlns="http://www.w3.org/2000/svg" width="2524" height="695">
<path d="M0 0 C61.35902589 -1.94771114 121.7182824 16.69187115 171.73095703 52.08251953 C172.29459961 52.48035645 172.85824219 52.87819336 173.43896484 53.28808594 C186.23570749 62.40546867 197.79983629 72.83146355 208.73095703 84.08251953 C209.54306641 84.89205078 210.35517578 85.70158203 211.19189453 86.53564453 C235.83046487 111.25002586 253.42282228 140.4211354 267.73095703 172.08251953 C268.0298584 172.7428418 268.32875977 173.40316406 268.63671875 174.08349609 C277.05915168 193.02253357 281.97054888 213.76572282 285.73095703 234.08251953 C285.97869873 235.37657715 285.97869873 235.37657715 286.23144531 236.69677734 C291.44455968 265.1936983 291.16171573 297.68222645 285.73095703 326.08251953 C285.44845566 327.72423177 285.16721654 329.36616169 284.88720703 331.00830078 C280.86466058 353.5889076 273.826687 375.06455689 264.73095703 396.08251953 C264.20284424 397.30455078 264.20284424 397.30455078 263.6640625 398.55126953 C249.98095193 429.78111448 229.28100374 456.69139972 205.73095703 481.08251953 C204.46251953 482.41283203 204.46251953 482.41283203 203.16845703 483.77001953 C197.73300683 489.36076831 191.85347376 494.26266594 185.73095703 499.08251953 C184.21501953 500.28908203 184.21501953 500.28908203 182.66845703 501.52001953 C149.41815237 527.74452453 111.67533378 544.91507546 70.73095703 555.08251953 C70.03454102 555.26153809 69.338125 555.44055664 68.62060547 555.625 C64.68119645 556.63318484 60.74012091 557.40581353 56.73095703 558.08251953 C55.61962402 558.28337158 55.61962402 558.28337158 54.48583984 558.48828125 C14.86200516 565.37635107 -26.57452164 562.04621129 -65.26904297 552.08251953 C-66.0848584 551.87369141 -66.90067383 551.66486328 -67.74121094 551.44970703 C-101.86361381 542.53464423 -136.09891678 525.53906952 -163.26904297 503.08251953 C-164.19330078 502.34775391 -165.11755859 501.61298828 -166.06982422 500.85595703 C-181.86033001 488.21461859 -196.82035276 474.04691443 -209.26904297 458.08251953 C-210.13564598 457.01587983 -211.004231 455.95084819 -211.87451172 454.88720703 C-239.92777949 420.3447492 -258.7044437 377.64633566 -267.26904297 334.08251953 C-267.41921875 333.33131836 -267.56939453 332.58011719 -267.72412109 331.80615234 C-281.65894283 259.91372001 -264.78035419 183.61555354 -223.99414062 123.19384766 C-216.55708646 112.36902488 -208.37170255 102.25204874 -199.51513672 92.55126953 C-198.01201698 90.89914488 -196.52502271 89.23221066 -195.05419922 87.55126953 C-189.81816298 81.58826166 -184.26419035 76.2743679 -178.26904297 71.08251953 C-177.23068168 70.15871531 -176.19295056 69.23420241 -175.15576172 68.30908203 C-161.09059069 55.87396681 -145.97980108 45.38400335 -129.5390625 36.33496094 C-127.40582678 35.15798748 -125.2882069 33.95664923 -123.17138672 32.75048828 C-90.94869554 14.71063675 -53.84359581 4.73851824 -17.26904297 1.08251953 C-16.57842773 1.01194336 -15.8878125 0.94136719 -15.17626953 0.86865234 C-10.12121692 0.37744158 -5.07331766 0.18450413 0 0 Z M-99.26904297 140.08251953 C-100.07583496 140.71794678 -100.07583496 140.71794678 -100.89892578 141.36621094 C-117.92706517 154.9468416 -131.99516721 170.4269394 -143.26904297 189.08251953 C-144.11208984 190.41089844 -144.11208984 190.41089844 -144.97216797 191.76611328 C-156.66616852 210.75569525 -164.04881892 233.07379404 -167.26904297 255.08251953 C-167.36330566 255.71085693 -167.45756836 256.33919434 -167.5546875 256.98657227 C-168.55748424 264.58647993 -168.51270248 272.24236757 -168.51904297 279.89501953 C-168.51971771 280.62795227 -168.52039246 281.36088501 -168.52108765 282.11602783 C-168.50375744 293.99612609 -167.84020568 305.45661254 -165.26904297 317.08251953 C-165.10275391 317.8562793 -164.93646484 318.63003906 -164.76513672 319.42724609 C-154.56962225 365.47698644 -125.81817418 405.59488333 -86.26904297 431.08251953 C-45.8336762 456.08790552 2.84143481 464.67968433 49.28564453 453.82861328 C78.22329505 446.60813003 103.09102256 433.40929286 125.73095703 414.08251953 C126.53533203 413.40189453 127.33970703 412.72126953 128.16845703 412.02001953 C133.15670016 407.70586331 137.51046297 403.14006356 141.73095703 398.08251953 C142.50310547 397.19822266 143.27525391 396.31392578 144.07080078 395.40283203 C150.40182251 388.04753098 155.65929608 380.34599799 160.73095703 372.08251953 C161.27494141 371.24205078 161.81892578 370.40158203 162.37939453 369.53564453 C185.60525335 332.91497825 191.10699315 284.41449759 182.2109375 242.640625 C171.69224996 195.72483457 142.81989558 156.03692389 102.52954102 130.14550781 C41.13957987 92.03857116 -42.19373148 95.05109527 -99.26904297 140.08251953 Z " fill="#5C5C5C" transform="translate(2231.26904296875,128.91748046875)"/>
<path d="M0 0 C1.19468903 -0.00503792 1.19468903 -0.00503792 2.41351318 -0.01017761 C5.03773586 -0.01964268 7.66189414 -0.02163006 10.28613281 -0.02270508 C12.13958765 -0.02592626 13.99304225 -0.02929095 15.84649658 -0.03279114 C19.74011826 -0.03877534 23.6337178 -0.04063232 27.52734375 -0.04003906 C31.46619329 -0.03995853 35.40492474 -0.04678225 39.34375 -0.06054688 C61.21806676 -0.13583295 82.95748928 -0.15308591 104.73925781 2.14526367 C105.46725586 2.22096588 106.19525391 2.29666809 106.9453125 2.37466431 C110.76830624 2.78687507 114.56570078 3.30051926 118.36425781 3.89526367 C120.00890015 4.14687256 120.00890015 4.14687256 121.68676758 4.40356445 C199.39972269 16.86302384 271.75287521 57.13319845 323.73925781 116.14526367 C324.19075195 116.65202637 324.64224609 117.15878906 325.10742188 117.6809082 C333.36239235 126.98332821 340.62857396 136.95154678 347.73925781 147.14526367 C348.20251465 147.80848633 348.66577148 148.47170898 349.14306641 149.1550293 C355.13831921 157.79596046 360.54191258 166.67980677 365.54003906 175.93188477 C366.36629806 177.45689781 367.20009202 178.97784439 368.04003906 180.49536133 C411.48201596 259.03833037 418.9256009 352.83460598 394.96191406 438.60620117 C384.60276785 474.3656179 368.62581495 510.54761084 345.73925781 540.14526367 C344.81479774 541.39335305 343.89314885 542.64352737 342.97363281 543.89526367 C327.23069123 565.26379224 309.3293952 586.51907239 288.42675781 603.01635742 C285.59236811 605.26162252 282.85928775 607.60434806 280.11425781 609.95776367 C272.65712667 616.16724095 264.77814127 621.71758213 256.73925781 627.14526367 C256.01915527 627.6325293 255.29905273 628.11979492 254.55712891 628.62182617 C214.28163287 655.59838407 167.96270086 673.02429455 120.23925781 680.89526367 C119.07410645 681.09418213 117.90895508 681.29310059 116.70849609 681.49804688 C90.46789739 685.54722174 63.68017609 685.47806503 37.19628906 685.40600586 C32.91403036 685.39444697 28.63201807 685.40131823 24.34976768 685.41315079 C20.97966697 685.42042504 17.60962359 685.41805888 14.23952103 685.4128952 C12.66017246 685.41158262 11.0808183 685.41312003 9.50147629 685.41785431 C-13.2258411 685.47124819 -32.74174088 681.64409876 -49.87792969 665.55541992 C-66.67229345 648.56833396 -71.43351877 628.34936279 -71.44824219 605.14526367 C-71.46048828 604.12948242 -71.47273437 603.11370117 -71.48535156 602.06713867 C-71.50891034 589.81657218 -69.54140178 579.64233418 -61.07324219 570.39526367 C-55.39109454 565.02532194 -47.57460566 561.03783906 -39.70236206 561.00050354 C-38.76673935 560.99360504 -37.83111664 560.98670654 -36.86714172 560.979599 C-35.84186874 560.97698563 -34.81659576 560.97437225 -33.76025391 560.97167969 C-32.67831253 560.96499268 -31.59637115 560.95830566 -30.48164368 560.95141602 C-28.12449148 560.93734412 -25.76732548 560.92545692 -23.41015244 560.91546822 C-19.65604564 560.89901927 -15.9020374 560.87576864 -12.14797974 560.85057068 C-1.47044682 560.77998086 9.20712635 560.72030844 19.88476562 560.66845703 C26.41764551 560.6362526 32.95041925 560.59485843 39.48321152 560.54826164 C41.9521781 560.53245827 44.42116917 560.52003975 46.89017105 560.51135445 C67.41830946 560.43822719 88.4106797 560.31927407 108.55175781 555.89526367 C109.57688477 555.67837891 110.60201172 555.46149414 111.65820312 555.23803711 C169.00687288 542.72915878 218.39187538 508.41440792 250.09130859 459.03930664 C280.73429619 410.18667505 291.24523949 350.71960307 278.73901367 294.36645508 C269.59318834 255.83545928 251.57477838 221.31387381 224.18261719 192.65600586 C223.20498943 191.63273784 222.23246557 190.60457341 221.26464844 189.57202148 C203.42804899 170.59323359 181.34200725 155.99566896 157.73925781 145.14526367 C156.59328125 144.61416992 155.44730469 144.08307617 154.26660156 143.53588867 C121.26092694 128.8330164 87.36511264 125.02978766 51.60584068 124.97659874 C47.74147222 124.96934731 43.87722454 124.95362212 40.01289368 124.93525696 C38.69349446 124.92899449 37.37409525 124.92273203 36.01471424 124.91627979 C35.34830752 124.91311398 34.6819008 124.90994817 33.99529994 124.90668643 C25.02511975 124.86487147 16.05498835 124.83159347 7.0847168 124.81933594 C0.34346266 124.81003094 -6.39742842 124.77989764 -13.13857079 124.73801613 C-15.69528996 124.72574154 -18.25205399 124.72057836 -20.80880165 124.72281456 C-24.38337743 124.72517428 -27.95704185 124.70295429 -31.53149414 124.67529297 C-32.57536285 124.68189438 -33.61923157 124.68849579 -34.69473267 124.69529724 C-44.87704012 124.56640661 -53.86923274 121.31423305 -61.26074219 114.14526367 C-73.44860342 99.24898883 -72.47738625 79.87104354 -70.79833984 61.62280273 C-68.81258248 44.17742896 -60.24269752 27.3477355 -46.72949219 16.02416992 C-32.64764377 5.32115582 -17.68639629 -0.0108817 0 0 Z " fill="#585858" transform="translate(253.2607421875,5.854736328125)"/>
<path d="M0 0 C6.40845895 8.17359589 6.80213947 16.80142873 6.72535706 26.86021423 C6.72908998 28.26186613 6.73458433 29.66351424 6.74167389 31.06515318 C6.75605055 34.89395632 6.74580003 38.72234937 6.73139083 42.55113757 C6.72023475 46.68976275 6.73228418 50.82832876 6.74157715 54.96694946 C6.75464787 62.13407573 6.75351689 69.30108527 6.74298286 76.46821404 C6.72800759 86.85124097 6.73798567 97.23413175 6.75450205 107.61715097 C6.78094804 124.49192268 6.79182269 141.36666377 6.79077148 158.24145508 C6.790684 159.75519616 6.790684 159.75519616 6.79059475 161.29951788 C6.79032895 165.38751147 6.79001168 169.47550506 6.78963149 173.56349864 C6.78866649 184.79729704 6.78999139 196.0310945 6.79272461 207.26489258 C6.7929645 208.27008817 6.79320439 209.27528377 6.79345156 210.31093984 C6.79786893 227.11351755 6.81414674 243.91606698 6.8379454 260.71862799 C6.85196482 271.06529053 6.85494214 281.41184498 6.84332251 291.75851113 C6.83596034 298.85980998 6.83911461 305.96105466 6.85028095 313.06234836 C6.85631164 317.14978861 6.85755867 321.23707678 6.84540367 325.32450676 C6.75287079 358.59869095 9.79288746 389.25089759 33.2265625 414.83984375 C33.99742187 415.69191406 34.76828125 416.54398438 35.5625 417.421875 C52.89223902 435.67698843 77.9048172 447.09332428 103.07421875 448.05859375 C132.49566902 448.77401716 158.78494373 439.12645819 180.2265625 418.83984375 C196.42808586 403.05732531 208.56921669 378.76787295 209.32134902 355.96630502 C209.36343058 352.33555367 209.37239768 348.70598065 209.37132263 345.07498169 C209.37445947 343.6646718 209.37803499 342.25436283 209.38201004 340.84405506 C209.39167771 336.97790633 209.39525354 333.11177238 209.39785302 329.24561334 C209.40175619 325.07237563 209.41139297 320.89915086 209.42041016 316.72592163 C209.4353332 309.49655547 209.44688476 302.26719034 209.45635796 295.03781509 C209.47024575 284.57558069 209.49143555 274.11337031 209.51478649 263.65115319 C209.5526877 246.66343722 209.58765678 229.6757169 209.61938477 212.68798828 C209.62128526 211.67151733 209.62318575 210.65504639 209.62514383 209.60777329 C209.65197685 195.1821253 209.6758524 180.75647392 209.69852883 166.33081888 C209.70092479 164.80702203 209.70092479 164.80702203 209.70336914 163.25244141 C209.70496261 162.23781661 209.70655607 161.22319182 209.70819782 160.17782082 C209.73497211 143.25560226 209.76937267 126.3334094 209.81002289 109.41121852 C209.83478308 98.97647029 209.85311805 88.54174968 209.8631785 78.10697673 C209.87057403 70.95619563 209.8851072 63.80545166 209.90524273 56.65469517 C209.91662338 52.53007458 209.92476892 48.40551386 209.92423439 44.28087616 C209.92380557 40.50206455 209.93255815 36.7233875 209.94848419 32.94461046 C209.95458249 30.93646487 209.95093209 28.92829689 209.94688886 26.92014611 C210.0078064 16.2027864 210.88641286 7.14826845 218.2265625 -1.16015625 C225.41732295 -7.27883968 232.79885491 -9.54927758 242.2265625 -9.47265625 C243.33414917 -9.46419678 243.33414917 -9.46419678 244.46411133 -9.45556641 C263.86488764 -9.03629211 280.67774239 -2.14958039 294.7265625 11.21875 C309.72256491 27.00001605 314.38981953 45.6683135 314.36027527 66.87095642 C314.36254083 68.06888417 314.36480638 69.26681193 314.36714059 70.50104052 C314.37235955 73.80958429 314.37312822 77.11807352 314.37194622 80.4266175 C314.37174148 84.00231618 314.37726827 87.57800687 314.38200378 91.15370178 C314.39029853 98.15678069 314.3930582 105.15985118 314.39361616 112.16293459 C314.39409239 117.86571516 314.3961525 123.56849297 314.39931679 129.27127266 C314.40812433 145.47727572 314.41273663 161.68327216 314.41198631 177.88927763 C314.41192638 179.1988667 314.41192638 179.1988667 314.41186523 180.53491211 C314.41182435 181.40905231 314.41178347 182.28319251 314.41174135 183.1838218 C314.41133605 197.30872895 314.42087595 211.43360928 314.4350036 225.55850869 C314.4494304 240.09875413 314.45627017 254.63898656 314.45540982 269.17923933 C314.45507976 277.32721148 314.4577417 285.47515561 314.46858788 293.62312126 C314.47777677 300.5703176 314.4798008 307.51747326 314.47307845 314.46467309 C314.46985339 317.99789419 314.46960708 321.53103765 314.4784317 325.06425095 C314.56207705 366.15856172 310.55964596 406.24896434 290.2265625 442.83984375 C289.71480469 443.8246875 289.20304687 444.80953125 288.67578125 445.82421875 C285.00678877 452.82596181 280.75265209 459.36444015 276.2265625 465.83984375 C275.22689453 467.27457031 275.22689453 467.27457031 274.20703125 468.73828125 C267.9186575 477.44167052 260.6658851 485.1210225 253.2265625 492.83984375 C252.47117187 493.63648438 251.71578125 494.433125 250.9375 495.25390625 C214.86329907 532.51573519 162.38977719 551.5959441 111.2421875 552.8359375 C67.32749323 553.23293096 23.65975289 539.97116289 -11.7734375 513.83984375 C-12.40282227 513.37723145 -13.03220703 512.91461914 -13.68066406 512.43798828 C-57.36266086 479.9703933 -85.44846657 432.29585327 -94.7734375 378.83984375 C-94.94805323 377.84654556 -95.12266895 376.85324738 -95.30257607 375.82984924 C-97.33309758 362.23154786 -97.07355146 348.55615738 -97.06420493 334.83992577 C-97.06379251 331.05525664 -97.0748756 327.27061691 -97.08432007 323.48596191 C-97.10083666 316.09262253 -97.10642525 308.69931506 -97.10754482 301.30595875 C-97.10849926 295.29198062 -97.11262913 289.27801291 -97.11894608 283.26403809 C-97.13652886 266.17430492 -97.14578898 249.08459673 -97.14428513 231.99485445 C-97.14420522 231.07616186 -97.1441253 230.15746926 -97.14404297 229.2109375 C-97.14396121 228.29111068 -97.14387945 227.37128386 -97.14379521 226.42358351 C-97.14298197 211.51062332 -97.16213691 196.59776405 -97.1903197 181.68483305 C-97.21909874 166.33415363 -97.23285741 150.98352337 -97.23113215 135.63281631 C-97.23047024 127.02970354 -97.23587568 118.42669673 -97.25748825 109.8236084 C-97.27576577 102.5019185 -97.27999333 95.18038269 -97.2664694 87.85867977 C-97.25997422 84.12998787 -97.25969644 80.40159103 -97.2771759 76.67292786 C-97.39295453 50.29930178 -94.77498415 29.6909812 -76.0234375 9.71484375 C-57.30279424 -8.39377849 -21.21602623 -18.55538451 0 0 Z " fill="#595959" transform="translate(839.7734375,138.16015625)"/>
<path d="M0 0 C6.37951652 6.18450946 8.84662938 13.67845824 9.04239559 22.40243244 C9.05421616 24.68885668 9.05507896 26.97535332 9.04734802 29.26179504 C9.05102373 30.52506062 9.05469943 31.78832619 9.05848652 33.08987254 C9.06844131 36.58522653 9.06610098 40.08047985 9.06175959 43.57584131 C9.05927849 47.35047923 9.06835834 51.12509102 9.07614136 54.89971924 C9.08817786 61.43989832 9.09329389 67.98005305 9.09402275 74.52024269 C9.09535062 83.99581198 9.11048319 93.47132241 9.12951792 102.94687089 C9.16035603 118.3469789 9.18451995 133.74708841 9.20239258 149.1472168 C9.2040016 150.52931844 9.2040016 150.52931844 9.20564312 151.93934133 C9.21744864 162.2057754 9.22765528 172.47221007 9.23608398 182.73864746 C9.23915763 186.45491538 9.24224649 190.17118329 9.24536133 193.88745117 C9.24650934 195.26286013 9.24650934 195.26286013 9.24768054 196.66605512 C9.26079626 211.99613649 9.28548577 227.32617545 9.31910473 242.65622538 C9.33931702 252.09751836 9.34969489 261.53872038 9.34711552 270.98003515 C9.3460745 277.46230483 9.3558121 283.94450297 9.37375455 290.42674766 C9.38372475 294.15759216 9.38900946 297.88827825 9.38098717 301.61913109 C9.29748594 344.72339364 19.98838665 381.85663183 51.15917969 413.17041016 C77.20019785 438.15824155 112.22268094 449.84522498 147.78540039 450.26855469 C157.58557801 450.47996335 165.61775716 452.82925349 172.7890625 459.734375 C180.02065087 468.26911762 180.18806346 478.11284004 179.515625 488.77563477 C177.92156968 508.01388986 169.82915452 525.26549733 155.125 538.05078125 C136.16709407 552.44677033 116.58066133 555.69714519 93.46508789 552.60058594 C55.00442384 546.98377124 17.79318277 531.67496331 -12.2109375 506.734375 C-13.16613281 505.96222656 -14.12132812 505.19007813 -15.10546875 504.39453125 C-28.13221044 493.74229947 -39.95118787 481.98513174 -49.95214844 468.43310547 C-51.17766461 466.77927662 -52.42990214 465.14903156 -53.6875 463.51953125 C-65.52181548 447.90151887 -74.30860071 430.01432011 -81.2109375 411.734375 C-81.48631348 411.00863281 -81.76168945 410.28289062 -82.04541016 409.53515625 C-94.01579674 377.38323182 -95.36372012 344.31812934 -95.35620117 310.40942383 C-95.35866052 307.69222378 -95.36257533 304.97502621 -95.36637878 302.25782776 C-95.37461813 295.6859333 -95.37743046 289.11404782 -95.37799116 282.54214863 C-95.37846911 277.19611932 -95.38053764 271.85009294 -95.38369179 266.50406456 C-95.39247652 251.3025618 -95.39711407 236.10106605 -95.39636131 220.89956073 C-95.39632136 220.08329407 -95.3962814 219.26702741 -95.39624023 218.42602539 C-95.39619935 217.60874817 -95.39615847 216.79147095 -95.39611635 215.94942775 C-95.3957095 202.6913811 -95.40529462 189.4333628 -95.4193786 176.17532436 C-95.43377047 162.5184802 -95.44064738 148.86164985 -95.43978482 135.20479792 C-95.43945404 127.55472562 -95.44214935 119.90468311 -95.45296288 112.25461769 C-95.46210454 105.74655062 -95.46421284 99.23852689 -95.45745345 92.73045615 C-95.45420792 89.41711264 -95.45516554 86.10391937 -95.4628067 82.79057312 C-95.52087776 55.85492287 -94.22525166 32.84884784 -74.7734375 12.1484375 C-56.71494744 -4.86398149 -21.54162203 -17.33628546 0 0 Z " fill="#5B5B5B" transform="translate(1514.2109375,136.265625)"/>
<path d="M0 0 C0.89291245 -0.00807175 1.78582489 -0.01614349 2.70579529 -0.02445984 C4.59266246 -0.0382485 6.47955403 -0.04899382 8.36645508 -0.05688477 C10.27375734 -0.06836577 12.18102846 -0.08875558 14.08813477 -0.1184082 C28.14288392 -0.33650964 41.46675549 -0.41598645 52.74609375 9.24609375 C63.41013112 20.21113217 63.81325707 32.46800571 63.85225868 47.00139999 C63.85951613 49.14719715 63.8752483 51.2927775 63.89360046 53.43850708 C63.94564665 59.53400756 63.99400746 65.62937955 64.00952148 71.72509766 C64.01966926 75.46932917 64.04915268 79.212997 64.09084129 82.95700455 C64.10304903 84.37215007 64.1082915 85.78737548 64.10604286 87.20257187 C64.09262613 98.39822481 65.64209415 108.84715123 73.68359375 117.23828125 C83.55846558 125.69675732 94.76877713 126.67525779 107.31949043 126.6184063 C109.55393093 126.60915163 111.78755765 126.61967841 114.0219574 126.63502502 C120.36578407 126.67474139 126.70953622 126.67632989 133.0534668 126.67407227 C136.95669604 126.67402085 140.85947984 126.69333247 144.76258659 126.72340584 C146.94624483 126.73411146 149.12900944 126.72217811 151.31263733 126.70957947 C163.40050022 126.74236997 172.99997598 129.52145653 181.68359375 138.23828125 C188.33586611 146.97027901 189.99535953 155.56902843 189.984375 166.29296875 C189.98866013 167.23455841 189.99294525 168.17614807 189.99736023 169.14627075 C190.00307444 171.1279419 190.00362539 173.109634 189.99926758 175.09130859 C189.99611011 178.09770051 190.01959504 181.10310456 190.04492188 184.109375 C190.04719565 186.04557169 190.047898 187.98177099 190.046875 189.91796875 C190.05608475 190.80370575 190.06529449 191.68944275 190.07478333 192.60202026 C189.99729801 203.22984901 186.92795167 212.46525822 179.74609375 220.37109375 C170.5437185 229.27767837 160.50040252 230.82663827 148.04769707 230.75470161 C145.81312763 230.74187725 143.57975886 230.75353398 141.3452301 230.77073669 C137.40520917 230.79724098 133.46549105 230.80303991 129.52539062 230.80163574 C123.21828781 230.79939418 116.91155905 230.81386729 110.60460091 230.8572216 C108.42104317 230.86694762 106.23809401 230.85840457 104.05455017 230.848526 C92.40823261 230.8673947 82.74851419 232.5452549 73.68359375 240.23828125 C64.94677107 249.45200473 64.24306367 258.86240628 64.2421875 271.0703125 C64.23038998 272.51227644 64.21702003 273.95422827 64.2021637 275.39616394 C64.16613918 279.17793863 64.14583217 282.95960618 64.13061523 286.74151611 C64.10570984 292.78187158 64.06555306 298.82199008 64.00871468 304.8621273 C63.99260993 306.95296916 63.98862854 309.04358003 63.98570251 311.13447571 C63.88154051 324.37345065 62.84454962 336.94110012 53.43359375 347.05078125 C41.99071017 357.52979342 28.95003565 357.57247305 14.24316406 357.49902344 C11.6892116 357.48830483 9.13596234 357.49896381 6.58203125 357.51171875 C-7.7383948 357.52515893 -19.52411229 356.70436637 -30.56640625 346.61328125 C-37.79654668 339.00792395 -40.42801838 329.7774313 -40.45825195 319.51123047 C-40.46172638 318.85517319 -40.46520081 318.19911591 -40.46878052 317.5231781 C-40.47610516 316.10457064 -40.48146798 314.68595196 -40.48507118 313.26733017 C-40.49228566 311.01228521 -40.50799088 308.75745175 -40.52641296 306.50247192 C-40.57863408 300.09282415 -40.62677884 293.68329323 -40.64233398 287.2734375 C-40.65249 283.34464096 -40.68200519 279.41638031 -40.72365379 275.48779678 C-40.73586184 274.00090742 -40.74110395 272.51394202 -40.73885536 271.02700424 C-40.72630167 260.01182289 -41.51468941 249.17707974 -49.48828125 240.80078125 C-59.65146351 232.11430069 -69.7036326 230.95146693 -82.6045475 230.96388626 C-84.8473162 230.9648623 -87.08961956 230.95178308 -89.33232117 230.93490601 C-95.70352618 230.88896244 -102.0746796 230.86405299 -108.44604492 230.85742188 C-112.35881787 230.85237053 -116.27110032 230.82794327 -120.18370628 230.79209518 C-121.66223373 230.78238433 -123.14082938 230.77991693 -124.61937904 230.78526688 C-137.88255769 230.83100986 -147.51298689 228.8979719 -157.22265625 219.46484375 C-165.0414105 211.15012374 -166.78349441 202.30241338 -166.75 191.2109375 C-166.75524185 190.18197861 -166.7604837 189.15301971 -166.7658844 188.09288025 C-166.77227341 185.92887265 -166.77100836 183.76483019 -166.76245117 181.60083008 C-166.75393874 178.31332831 -166.78275202 175.02756517 -166.81445312 171.74023438 C-166.81606551 169.6263026 -166.8154869 167.51236778 -166.8125 165.3984375 C-166.82373398 164.42834244 -166.83496796 163.45824738 -166.84654236 162.45875549 C-166.74560618 152.43941791 -163.35607875 143.48809323 -156.31640625 136.23828125 C-148.89974253 130.02299446 -142.2302483 127.01253843 -132.42236328 126.95117188 C-131.44765076 126.94092232 -131.44765076 126.94092232 -130.45324707 126.9304657 C-129.05488613 126.91697207 -127.65647719 126.90785858 -126.25806046 126.90275574 C-124.03693203 126.89439083 -121.81620008 126.87381663 -119.59518433 126.85021973 C-114.87731799 126.80222154 -110.15941163 126.76915951 -105.44140625 126.73828125 C-99.97617971 126.70245421 -94.51114862 126.66030605 -89.04610825 126.6023407 C-86.87211113 126.58246902 -84.6982688 126.57399306 -82.52420044 126.56604004 C-70.66298121 126.47462099 -60.31776997 125.40792268 -51.11328125 117.296875 C-42.25421672 108.12610264 -40.72845419 97.98498934 -40.79998589 85.60238457 C-40.81281025 83.36781513 -40.80115352 81.13444636 -40.78395081 78.8999176 C-40.75744652 74.95989667 -40.75164759 71.02017855 -40.75305176 67.08007812 C-40.75529332 60.77297531 -40.74082021 54.46624655 -40.6974659 48.15928841 C-40.68773988 45.97573067 -40.69628293 43.79278151 -40.7061615 41.60923767 C-40.68568422 28.93762289 -38.47574642 18.94701923 -29.6875 9.484375 C-21.09913257 1.53365898 -11.28441202 0.09842052 0 0 Z " fill="#585858" transform="translate(171.31640625,169.76171875)"/>
<path d="M0 0 C3.55525346 2.79567409 6.79816423 5.80883701 10 9 C10.7115625 9.68835938 11.423125 10.37671875 12.15625 11.0859375 C26.65831816 26.09000033 29.61879542 45.57257481 29.50793457 65.47618103 C29.51255293 67.30089058 29.51891209 69.1255964 29.52684355 70.95029455 C29.5434317 75.92511308 29.53533867 80.89962187 29.52289867 85.87444103 C29.5138071 91.25492238 29.52783824 96.63535238 29.53881836 102.01582336 C29.55656483 112.54092447 29.55278076 123.0659112 29.5411678 133.5910167 C29.53211801 142.14888375 29.53091616 150.70671884 29.53526306 159.26458931 C29.53587599 160.48464706 29.53648893 161.70470482 29.53712043 162.96173402 C29.53839939 165.44061331 29.53969625 167.9194926 29.5410108 170.39837188 C29.55240538 193.61982166 29.53932074 216.84120819 29.51780933 240.06264759 C29.49994164 259.96652004 29.50304196 279.87029916 29.52148438 299.77416992 C29.54291477 322.91348654 29.55130449 346.05274777 29.53903532 369.19207293 C29.53776119 371.66191359 29.5365037 374.13175425 29.53526306 376.60159492 C29.53464596 377.81665545 29.53402886 379.03171598 29.53339306 380.28359653 C29.5299465 388.82581131 29.53575356 397.36799081 29.54518127 405.91020012 C29.55642684 416.32808602 29.55330758 426.74585145 29.5320583 437.16372364 C29.52158198 442.47410119 29.51736752 447.78427824 29.53065491 453.09465408 C29.54265582 457.96472882 29.53589045 462.83441895 29.5147447 467.70445926 C29.51031102 469.45730841 29.51247119 471.21019068 29.52224785 472.96301817 C29.63742534 495.34633344 23.88972815 514.72011095 7.9140625 531.14453125 C-4.15580315 542.5390073 -20.3265462 549.59660999 -37 550 C-38.44632813 550.07541016 -38.44632813 550.07541016 -39.921875 550.15234375 C-49.43196266 550.45405973 -57.63691686 548.98034011 -65.17578125 542.87890625 C-72.25990026 535.58241537 -74.15210247 528.29802797 -74.13422108 518.45876789 C-74.13657331 517.58395969 -74.13892554 516.70915148 -74.14134905 515.80783394 C-74.14804305 512.85595186 -74.1475807 509.90411377 -74.14717102 506.95222473 C-74.15046939 504.82266427 -74.1541949 502.69310444 -74.1583125 500.56354541 C-74.16834357 494.69534373 -74.17205107 488.82715228 -74.17470181 482.95894325 C-74.17860153 476.6363512 -74.18818004 470.31376728 -74.19691467 463.99118042 C-74.21575285 449.43708044 -74.22593609 434.88298144 -74.23437535 420.3288723 C-74.23858154 413.13756876 -74.24380355 405.94626606 -74.24905988 398.75496323 C-74.26694966 374.14080928 -74.28194614 349.52665509 -74.28938007 324.91249561 C-74.28985483 323.3671921 -74.29033072 321.82188859 -74.29080774 320.27658508 C-74.29104411 319.51025083 -74.29128049 318.74391658 -74.29152403 317.95436008 C-74.29272523 314.07170554 -74.29394068 310.18905101 -74.29516602 306.30639648 C-74.29540617 305.53587119 -74.29564632 304.76534589 -74.29589374 303.97147135 C-74.30378778 278.98565336 -74.32722198 253.99988282 -74.35972196 229.01408555 C-74.39401608 202.60077297 -74.41373079 176.18748815 -74.41702431 149.77415293 C-74.41744186 146.87484816 -74.41792142 143.97554339 -74.41844749 141.07623863 C-74.41857069 140.36234264 -74.41869388 139.64844665 -74.4188208 138.91291745 C-74.42115328 127.42215232 -74.43681578 115.93144229 -74.45728934 104.44069679 C-74.47754037 92.89166649 -74.4826945 81.34272693 -74.47351871 69.79367755 C-74.46896413 63.53641866 -74.47092765 57.27933877 -74.49028015 51.02210426 C-74.5078415 45.29463151 -74.50697115 39.56746929 -74.49138286 33.83999356 C-74.48899611 31.76728462 -74.49338529 29.69455458 -74.50521151 27.62187801 C-74.52029272 24.80435363 -74.51068388 21.98793493 -74.49498463 19.17043781 C-74.50520683 18.36577773 -74.51542904 17.56111765 -74.52596101 16.73207393 C-74.41986599 8.0075556 -70.79862878 1.04889839 -64.9296875 -5.2734375 C-48.09055908 -20.34002609 -16.54496786 -10.79019643 0 0 Z " fill="#595959" transform="translate(1309,141)"/>
<path d="M0 0 C15.22797556 12.3769727 25.28727508 27.25279762 28 47 C28.09108243 49.53329782 28.13795877 52.03829588 28.13142776 54.57082367 C28.1334804 55.31643681 28.13553303 56.06204994 28.13764787 56.83025742 C28.14330581 59.33066192 28.1418621 61.83101113 28.14044189 64.3314209 C28.14302623 66.14153434 28.14603958 67.9516472 28.1494453 69.76175928 C28.15751067 74.73786993 28.15930461 79.71396614 28.16004276 84.69008255 C28.16189415 90.0563521 28.16944197 95.42261417 28.17617798 100.78887939 C28.18975907 112.52462601 28.19578582 124.2603692 28.20018864 135.99612236 C28.20295173 143.32548469 28.20718924 150.65484571 28.21169281 157.98420715 C28.22388574 178.28081937 28.23418465 198.57743053 28.2375679 218.87404633 C28.23789725 220.82257086 28.23789725 220.82257086 28.23823325 222.81045952 C28.23856067 224.76362765 28.23856067 224.76362765 28.2388947 226.75625372 C28.23933817 229.39479415 28.23978473 232.03333457 28.24023438 234.671875 C28.2404558 235.98068014 28.24067723 237.28948529 28.24090537 238.6379512 C28.24485215 259.8383345 28.26230239 281.03868341 28.2855939 302.23905343 C28.30931911 324.01013126 28.32177031 345.78119184 28.32293582 367.55228281 C28.32385198 379.7738625 28.32958938 391.99539739 28.34775543 404.21696472 C28.36317226 414.62558229 28.36826756 425.03414121 28.36001733 435.44276804 C28.35611631 440.75078677 28.35701368 446.05868745 28.37107468 451.36669159 C28.3838464 456.23263228 28.38258738 461.09836659 28.37048396 465.96430713 C28.36853262 467.71806846 28.3715792 469.47184457 28.38032833 471.22558516 C28.47027821 490.4861393 25.17090288 507.45707208 13 523 C12.46632813 523.69867187 11.93265625 524.39734375 11.3828125 525.1171875 C0.58243187 538.39803832 -16.0770123 546.69758598 -32.9375 548.6875 C-34.62354135 548.8130847 -36.31136593 548.91620312 -38 549 C-39.45599609 549.07927734 -39.45599609 549.07927734 -40.94140625 549.16015625 C-50.57600161 549.4431648 -58.6335279 547.9245137 -66.24609375 541.7421875 C-69.14286157 538.86477447 -71.18881952 535.6434212 -73 532 C-73.34547996 531.31215131 -73.69095992 530.62430261 -74.04690897 529.91561002 C-75.31311083 526.04215962 -75.27759214 522.35258784 -75.25726891 518.322896 C-75.26077498 517.44554518 -75.26428105 516.56819435 -75.26789337 515.66425714 C-75.27723418 512.70968738 -75.27227712 509.75531357 -75.26742554 506.80073547 C-75.27116045 504.6668989 -75.27576133 502.53306369 -75.28115618 500.39923066 C-75.29342137 494.5238027 -75.29312157 488.64843153 -75.29076743 482.77299368 C-75.29036015 476.44085216 -75.30138998 470.10872906 -75.31088257 463.77659607 C-75.32751318 451.36586144 -75.33301895 438.95514966 -75.33410732 426.54440532 C-75.3350261 416.45784065 -75.33914115 406.37128214 -75.34550858 396.28471947 C-75.34730365 393.38220969 -75.34908327 390.47969989 -75.35085833 387.5771901 C-75.35130043 386.85563026 -75.35174252 386.13407043 -75.35219802 385.39064514 C-75.36450866 365.09077234 -75.37239893 344.79090167 -75.37151146 324.49102497 C-75.37146472 323.34271595 -75.37146472 323.34271595 -75.37141704 322.17120876 C-75.37125083 318.29106999 -75.37105274 314.41093122 -75.37084763 310.53079245 C-75.37080774 309.76017338 -75.37076785 308.9895543 -75.37072675 308.19558314 C-75.37064587 306.63720245 -75.37056228 305.07882177 -75.37047596 303.52044108 C-75.36925063 279.2780077 -75.38425952 255.03563027 -75.41162109 230.79321289 C-75.44234443 203.56100383 -75.4595534 176.32883154 -75.45769465 149.09660405 C-75.45754539 146.19252249 -75.45744797 143.28844093 -75.45738602 140.38435936 C-75.45736271 139.66929414 -75.4573394 138.95422893 -75.45731538 138.21749507 C-75.45725384 126.71117913 -75.47002465 115.20491177 -75.48725055 103.69861028 C-75.5042072 92.13287693 -75.50583763 80.5672396 -75.4930319 69.00149594 C-75.48649194 62.73600871 -75.48642233 56.47069749 -75.5037384 50.2052269 C-75.51942853 44.4691009 -75.51664673 38.73329107 -75.49917014 32.99717297 C-75.4960913 30.92245967 -75.49976575 28.847723 -75.51089029 26.77303723 C-75.6251978 3.9422541 -75.6251978 3.9422541 -67.75 -4.875 C-49.78053736 -21.22489734 -17.62995287 -12.65813472 0 0 Z " fill="#5A5A5A" transform="translate(1850,142)"/>
<path d="M0 0 C2.20335984 -0.00961536 4.40574894 -0.04062981 6.60888672 -0.07226562 C23.66639468 -0.20206643 38.26556224 3.38569931 51.11279297 15.30273438 C61.96143129 26.80070725 65.90827221 40.42967587 65.55419922 55.90820312 C64.79692645 70.29004881 57.54702109 82.57133098 47.23779297 92.24023438 C34.15008892 102.38514106 20.78670851 104.44525838 4.64208984 104.53540039 C3.2129525 104.54689957 1.78385742 104.56731912 0.35498047 104.59692383 C-10.7966402 104.82710604 -21.69547105 104.13979873 -30.26220703 96.08789062 C-35.0567441 90.1821197 -37.86587182 83.18293144 -37.93920898 75.62646484 C-37.95204422 74.4745163 -37.96487946 73.32256775 -37.97810364 72.13571167 C-37.98549057 70.88887604 -37.9928775 69.64204041 -38.00048828 68.35742188 C-38.00856003 67.07344513 -38.01663177 65.78946838 -38.02494812 64.46658325 C-38.03996614 61.74465061 -38.04980657 59.02274394 -38.05737305 56.30078125 C-38.06839669 52.8341999 -38.10275191 49.36826769 -38.14254475 45.9019146 C-38.17517979 42.57461137 -38.17950499 39.24737267 -38.18798828 35.91992188 C-38.20549637 34.68523163 -38.22300446 33.45054138 -38.24104309 32.17843628 C-38.21513387 21.809131 -35.77105239 14.59284247 -28.69189453 6.96679688 C-20.42391174 -0.43087194 -10.49375592 0.02760909 0 0 Z " fill="#5C5C5C" transform="translate(1272.76220703125,5.759765625)"/>
<path d="M0 0 C2.11996392 -0.00959585 4.23891027 -0.04060198 6.35864258 -0.07226562 C23.42041782 -0.20701174 38.44067441 2.963224 51.1574707 15.05273438 C62.04796352 26.72111954 66.20879864 39.55483861 65.9309082 55.32226562 C65.13816122 70.0468069 58.48255914 82.30814489 47.7199707 92.24023438 C34.56081568 102.41664759 21.23201437 104.4363692 5.0144043 104.48046875 C2.85727427 104.49017899 0.701097 104.52126821 -1.45581055 104.55273438 C-11.60585027 104.63048354 -20.07348469 103.76816759 -28.2800293 97.24023438 C-35.59959871 89.92066496 -37.72403317 81.54761471 -37.83581543 71.36828613 C-37.82771851 70.16071655 -37.81962158 68.95314697 -37.8112793 67.70898438 C-37.8151062 66.43728394 -37.81893311 65.1655835 -37.82287598 63.85534668 C-37.82558603 61.17887713 -37.82033909 58.50389189 -37.80151367 55.82763672 C-37.77872502 52.42510848 -37.79186965 49.02384288 -37.81580353 45.62136078 C-37.83386614 42.33802569 -37.82115983 39.05483605 -37.8112793 35.77148438 C-37.81937622 34.56391479 -37.82747314 33.35634521 -37.83581543 32.11218262 C-37.73541612 22.96943022 -36.31806926 15.29294703 -30.0300293 8.36523438 C-21.10131609 0.24125497 -11.54960617 0.03148819 0 0 Z " fill="#5D5D5D" transform="translate(1812.280029296875,5.759765625)"/>
<path d="M0 0 C0.66 0.33 1.32 0.66 2 1 C-7.9 10.9 -17.8 20.8 -28 31 C-28 28 -28 28 -26.71484375 26.45703125 C-26.12832031 25.91433594 -25.54179688 25.37164062 -24.9375 24.8125 C-22.40021413 22.39146428 -20.05780956 19.94326541 -17.8125 17.25 C-13.76832925 12.54103406 -9.1818235 8.46321611 -4.57421875 4.3203125 C-3.01635504 2.91610758 -1.48302576 1.48302576 0 0 Z " fill="#A2A2A3" transform="translate(2056,197)"/>
<path d="M0 0 C0.66 0.33 1.32 0.66 2 1 C-3.28 6.28 -8.56 11.56 -14 17 C-14 12.95607032 -12.51908749 11.99868382 -9.8125 9.0625 C-9.03519531 8.20785156 -8.25789063 7.35320312 -7.45703125 6.47265625 C-5.09786332 4.09848566 -2.65532732 2.0327639 0 0 Z " fill="#A6A6A7" transform="translate(1447,142)"/>
<path d="M0 0 C0.66 0.33 1.32 0.66 2 1 C-2.95 5.95 -7.9 10.9 -13 16 C-13 11.08924079 -9.30469813 8.39044878 -6 5 C-4.05397986 3.23549584 -2.07285289 1.6178364 0 0 Z " fill="#A2A2A3" transform="translate(210,19)"/>
<path d="M0 0 C0.66 0.33 1.32 0.66 2 1 C-1.3 4.3 -4.6 7.6 -8 11 C-8 6.67750434 -5.85084926 5.11604454 -3 2 C-2.01 1.34 -1.02 0.68 0 0 Z " fill="#A3A3A4" transform="translate(1063,133)"/>
</svg>
